<?xml version="1.0" encoding="utf-8"?>
<!-- Generator: Adobe Illustrator 24.0.1, SVG Export Plug-In . SVG Version: 6.00 Build 0)  -->
<svg version="1.1" id="_x31_1567813-e781-4e7f-9d62-924af5cdcf5c"
	 xmlns="http://www.w3.org/2000/svg" xmlns:xlink="http://www.w3.org/1999/xlink" x="0px" y="0px" viewBox="0 0 883.3 785.3"
	 style="enable-background:new 0 0 883.3 785.3;" xml:space="preserve">
<style type="text/css">
	.st0{fill:#F5F5F5;}
	.st1{fill:#6C63FF;}
	.st2{fill:none;stroke:#535461;stroke-miterlimit:10;}
	.st3{opacity:0.2;fill:#F5F5F5;enable-background:new    ;}
	.st4{fill:url(#SVGID_1_);}
	.st5{opacity:0.1;enable-background:new    ;}
	.st6{fill:#784F69;}
	.st7{opacity:0.15;enable-background:new    ;}
	.st8{opacity:7.000000e-02;enable-background:new    ;}
	.st9{opacity:3.000000e-02;enable-background:new    ;}
	.st10{fill:#4D4981;}
	.st11{opacity:0.5;fill:#FFFFFF;enable-background:new    ;}
	.st12{opacity:0.5;fill:#FD6F8D;enable-background:new    ;}
	.st13{opacity:0.5;}
	.st14{fill:#FFFFFF;}
	.st15{fill:url(#SVGID_2_);}
	.st16{fill:#FEC3BE;}
	.st17{fill:#8B416F;}
	.st18{opacity:5.000000e-02;enable-background:new    ;}
	.st19{fill:#FD6F8D;}
	.st20{fill:#FAD375;}
	.st21{fill:url(#SVGID_3_);}
	.st22{fill:#5A5773;}
	.st23{fill:#605D82;}
	.st24{opacity:0.1;}
	.st25{fill:#A1616A;}
	.st26{fill:#E1E7EF;}
	.st27{fill:#67647E;}
	.st28{fill:#E6E6E6;}
	.st29{fill:#4A4347;}
</style>
<title>tasting</title>
<ellipse class="st0" cx="428.1" cy="663" rx="428.1" ry="122.3"/>
<path class="st1" d="M660.2,392.8c0,0-53,37.5-39,109s-74.4,171.3-74.4,171.3s0.8,0,2.2,0c95.7-0.5,160.1-98.8,122-186.6
	C656.8,453.8,647,416.6,660.2,392.8z"/>
<path class="st2" d="M660.2,392.8c0,0-35,51.1-17.3,100.7s-25.2,173-96.1,179.6"/>
<path class="st1" d="M709.4,589.7c0,0-50.2-17.1-62.8,28.4s-108.3,35.6-108.3,35.6s0.5,0.5,1.6,1.5C609.1,719.8,687,714,687.4,644
	C687.5,618,692.2,592.7,709.4,589.7z"/>
<path class="st3" d="M709.4,589.7c0,0-50.2-17.1-62.8,28.4s-108.3,35.6-108.3,35.6s0.5,0.5,1.6,1.5C609.1,719.8,687,714,687.4,644
	C687.5,618,692.2,592.7,709.4,589.7z"/>
<path class="st2" d="M709.4,589.7c0,0-41.6,1.9-44.5,38.9s-73.2,69.9-126.6,25.1"/>
<linearGradient id="SVGID_1_" gradientUnits="userSpaceOnUse" x1="586.3226" y1="10.3668" x2="586.3226" y2="491.55" gradientTransform="matrix(1 0 0 -1 -158.33 730.65)">
	<stop  offset="0" style="stop-color:#808080;stop-opacity:0.25"/>
	<stop  offset="0.54" style="stop-color:#808080;stop-opacity:0.12"/>
	<stop  offset="1" style="stop-color:#808080;stop-opacity:0.1"/>
</linearGradient>
<path class="st4" d="M621.3,485.9c3-15,2.3-36.9-22.2-47.5c13.1-21.1,7-36-4.9-41.3c-0.1-5.5-1.5-16.7-11.2-22.6
	c1.3-10.4,3.4-51.6-43.3-56.3c-5.5-9.4-22.6-35-50.5-42.1v-37c-6.7,14.1-49,22.2-49,22.2c-48.5,6.8-59.3,34.1-61.8,46.1
	c-6.2,0.2-11.7,1-14.8,2.9c-10.2,6.4-82.7,25.3-77,75.5c-1,0.3-1.9,0.7-2.9,1c0,0-39.7,31.6-29,56.8l-4,0.3c0,0-23,14.2-15.9,42.2
	c-1.9,2.1-2.7,5-2,7.7l54.7,182.3c0.4,1.3,1.1,2.4,2.2,3.2c2.5,1.7,7.6,5.2,15.1,9.3l0.1,0.3l0.3-0.1c8.5,4.7,17.3,8.9,26.3,12.5
	v0.2l0.3-0.1c6.3,2.6,13.3,5.1,20.8,7.4v0.2h0.3c7,2.1,14.4,4.1,22.2,5.8v0.1h0.3c7.4,1.5,15.1,2.8,23.2,3.8l0,0h0.3
	c10,1.1,20,1.6,30,1.5l0,0h0.7l0,0c9.4-0.1,18.8-0.8,28.1-2h0.3v-0.1c7.5-1,15.2-2.3,23.1-4.1l-0.1,0.8l0.7,0.1l0.1-1
	c7.8-1.8,15.8-4,24-6.7h0.3v-0.2c6.8-2.2,13.6-4.8,20.6-7.7l0.3,0.1v-0.2c8.1-3.4,16.2-7.3,24.5-11.7l0.3,0.1l0.1-0.3
	c4.7-2.5,9.4-5.2,14.1-8c1.3-0.8,2.2-2,2.6-3.4l54.5-182.4C623.9,490.8,623.1,487.9,621.3,485.9L621.3,485.9z"/>
<path class="st1" d="M537.5,327.5c0,0-24.6-50.5-71.2-45.3s3.2,53.1,3.2,53.1S526.5,339.8,537.5,327.5z"/>
<path class="st5" d="M537.5,327.5c0,0-24.6-50.5-71.2-45.3s3.2,53.1,3.2,53.1S526.5,339.8,537.5,327.5z"/>
<path class="st1" d="M379.5,319c0,0,0-0.7,0.1-1.8c0.8-8.1,7.5-40.7,60.1-48c0,0,40.8-7.8,47.3-21.4v41.4c0,0-8.4,29.1-50.5,38.9
	S379.5,319,379.5,319z"/>
<path class="st6" d="M257.1,445.3c0,0-30.5,18.8-9.1,55.7s361.3,0,361.3,0s22-45.3-17.5-61.5S257.1,445.3,257.1,445.3z"/>
<path class="st5" d="M588.4,401.4c-0.1-5.3-1.5-16-10.8-21.8c1.2-10,3.2-49.8-41.7-54.2c-5.3-9.1-21.8-33.8-48.7-40.5v-35.7
	c-6.5,13.6-47.3,21.4-47.3,21.4c-46.7,6.5-57.2,32.9-59.5,44.4c-6,0.2-11.3,1-14.3,2.8c-9.8,6.1-79.7,24.4-74.2,72.8
	c-0.9,0.3-1.9,0.7-2.8,1c0,0-55.1,44-15.1,68.3l0,0c0,0,18.4,35.3,72.1,8.1l0.2-0.1c20.2,5.8,74.5,18,106.7-6.4l2.3-1.8
	c12.8,7.6,43.1,21.6,68.9,1.8l0.2-0.2c10,9.4,30.3,21.4,54.8-3.1C608.5,429,602.8,407.9,588.4,401.4z"/>
<path class="st1" d="M517.4,452.4c0,0,26.5,39.5,61.5,4.5s20.1-58.3,0-58.9S517.4,452.4,517.4,452.4z"/>
<path class="st7" d="M517.4,452.4c0,0,26.5,39.5,61.5,4.5s20.1-58.3,0-58.9S517.4,452.4,517.4,452.4z"/>
<path class="st1" d="M588,403.2c0,0,6.5-55-77-13s-62.2,64.1-62.2,64.1s41.4,31.7,75.1,5.8S578.3,426.5,588,403.2z"/>
<path class="st5" d="M588,403.2c0,0,6.5-55-77-13s-62.2,64.1-62.2,64.1s41.4,31.7,75.1,5.8S578.3,426.5,588,403.2z"/>
<path class="st1" d="M523.9,386.4c0,0-31.7-22-80.3,0s-105.5,77.7-105.5,77.7s74.5,26.6,114.6-3.9S522,407.1,523.9,386.4z"/>
<path class="st8" d="M523.9,386.4c0,0-31.7-22-80.3,0s-105.5,77.7-105.5,77.7s74.5,26.6,114.6-3.9S522,407.1,523.9,386.4z"/>
<path class="st1" d="M458.5,383.1c0,0-64.8-9.1-94.5,9.1s-90.3,66.4-90.3,66.4s18.4,35.3,72.1,8.1
	C345.8,466.6,457.2,397.4,458.5,383.1z"/>
<path class="st9" d="M458.5,383.1c0,0-64.8-9.1-94.5,9.1s-90.3,66.4-90.3,66.4s18.4,35.3,72.1,8.1
	C345.8,466.6,457.2,397.4,458.5,383.1z"/>
<path class="st1" d="M288.9,390.3c0,0-57.6,46-12.3,69.9c0,0,95.8-62.8,97.8-69.9C374.3,390.3,329.7,374.7,288.9,390.3z"/>
<path class="st1" d="M414.5,316.4c0,0-38.2-6.5-48.6,0s-88,26.5-72.5,81.6l23.3-8.4C316.7,389.6,361.4,333.3,414.5,316.4z"/>
<path class="st5" d="M414.5,316.4c0,0-38.2-6.5-48.6,0s-88,26.5-72.5,81.6l23.3-8.4C316.7,389.6,361.4,333.3,414.5,316.4z"/>
<path class="st1" d="M477.9,324.9c0,0-27.2-25.2-87.4-1.9s-80.3,65.4-80.3,65.4l90.3,6.8C400.5,395.1,451.4,322.3,477.9,324.9z"/>
<path class="st8" d="M477.9,324.9c0,0-27.2-25.2-87.4-1.9s-80.3,65.4-80.3,65.4l90.3,6.8C400.5,395.1,451.4,322.3,477.9,324.9z"/>
<path class="st1" d="M520,328.1c0,0-43.4-14.2-77,5.2s-46,57.6-46,57.6l53.7-2.6C450.7,388.3,492.8,322.3,520,328.1z"/>
<path class="st9" d="M520,328.1c0,0-43.4-14.2-77,5.2s-46,57.6-46,57.6l53.7-2.6C450.7,388.3,492.8,322.3,520,328.1z"/>
<path class="st1" d="M577,380.5c0,0,14.9-75.8-83.5-52.4c0,0-55.9,49.2-40.3,62.8S577,380.5,577,380.5z"/>
<path class="st5" d="M239.8,492.1l52.7,175.7c0.4,1.2,1.1,2.3,2.2,3c14.7,10.3,127.9,83.3,266.5,0c1.2-0.7,2.1-1.9,2.5-3.2
	l52.5-175.8c0.9-3-0.8-6.2-3.8-7.1c-1-0.3-2-0.3-3-0.1l-22.8,5.7c-0.8,0.2-1.6,0.2-2.4,0.1l-21.5-4c-1.3-0.2-2.6,0-3.7,0.6
	l-25.5,13.6c-1.2,0.7-2.7,0.8-4,0.5l-27.4-6.8c-1-0.3-2.1-0.2-3.1,0.1l-31.8,10.4c-1.4,0.5-3,0.3-4.3-0.3l-21.1-10.8
	c-1.3-0.7-2.9-0.8-4.3-0.4l-27.2,8.7c-0.7,0.2-1.4,0.3-2.1,0.2l-26.2-1.8c-0.4,0-0.8-0.1-1.2-0.2l-20.8-5.9
	c-0.9-0.2-1.8-0.3-2.7-0.1l-28.8,5.8c-1.1,0.2-2.2,0.1-3.2-0.3l-28-11.1c-1-0.4-2.1-0.5-3.1-0.3l-22.3,4c-0.9,0.2-1.8,0.1-2.7-0.2
	l-22.5-7.1c-3-0.9-6.2,0.8-7.1,3.8C239.5,489.9,239.5,491,239.8,492.1z"/>
<path class="st10" d="M239.8,493.4l52.7,175.7c0.4,1.2,1.1,2.3,2.2,3c14.7,10.3,127.9,83.3,266.5,0c1.2-0.7,2.1-1.9,2.5-3.2
	L616.2,493c0.9-3-0.8-6.2-3.8-7.1c-1-0.3-2-0.3-3-0.1l-22.8,5.7c-0.8,0.2-1.6,0.2-2.4,0.1l-21.5-4c-1.3-0.2-2.6,0-3.7,0.6
	l-25.5,13.6c-1.2,0.7-2.7,0.8-4,0.5l-27.4-6.8c-1-0.3-2.1-0.2-3.1,0.1l-31.8,10.4c-1.4,0.5-3,0.3-4.3-0.3l-21.1-10.8
	c-1.3-0.7-2.9-0.8-4.3-0.4l-27.2,8.7c-0.7,0.2-1.4,0.3-2.1,0.2l-26.2-1.8c-0.4,0-0.8-0.1-1.2-0.2l-20.8-5.9
	c-0.9-0.2-1.8-0.3-2.7-0.1l-28.8,5.9c-1.1,0.2-2.2,0.1-3.2-0.3l-28-11.1c-1-0.4-2.1-0.5-3.1-0.3l-22.3,4c-0.9,0.2-1.8,0.1-2.7-0.2
	l-22.5-7.1c-3-0.9-6.2,0.8-7.1,3.8C239.5,491.2,239.5,492.3,239.8,493.4z"/>
<polygon class="st11" points="297.6,430.8 292.1,428.9 289,423.9 302.8,406.7 308.3,408.6 311.4,413.6 "/>
<polygon class="st11" points="558.5,459.9 553,458 550,453 563.7,435.9 569.2,437.8 572.3,442.7 "/>
<polygon class="st11" points="444,366 438.4,364.1 435.4,359.2 449.1,342 454.6,343.9 457.7,348.8 "/>
<polygon class="st11" points="474.9,429.3 469.5,431.6 463.9,430.1 462.2,408.2 467.5,405.8 473.1,407.3 "/>
<polygon class="st11" points="385.1,375.4 381.4,379.9 375.7,381.1 364.2,362.4 367.9,357.8 373.6,356.6 "/>
<polygon class="st11" points="378.6,428.5 374.9,433 369.2,434.2 357.7,415.5 361.4,410.9 367.1,409.7 "/>
<polygon class="st11" points="537,433.7 532.7,437.7 526.9,438.2 517.9,418.1 522.2,414 528,413.6 "/>
<polygon class="st11" points="508.1,364.8 509.5,359.1 514.2,355.6 532.5,367.8 531.1,373.5 526.5,377 "/>
<polygon class="st12" points="313.2,373.2 307.6,371.2 304.6,366.3 318.3,349.1 323.8,351 326.9,356 "/>
<polygon class="st12" points="382.5,340.8 381.2,335.1 383.7,329.9 405.6,332.2 407,337.9 404.4,343.2 "/>
<polygon class="st12" points="488.6,308.5 489.7,302.8 494.2,299 513.2,310.1 512.1,315.8 507.6,319.6 "/>
<polygon class="st12" points="446.2,279.6 451.9,278.3 457.1,280.9 454.6,302.8 448.9,304.1 443.7,301.5 "/>
<polygon class="st12" points="407.1,452.2 405.8,446.5 408.3,441.2 430.2,443.6 431.5,449.2 429,454.5 "/>
<polygon class="st12" points="326.2,456.3 322.8,451.6 323,445.8 344.1,439.4 347.5,444.1 347.3,450 "/>
<polygon class="st12" points="552.8,417.3 548,414 546.4,408.4 564.2,395.5 569,398.9 570.7,404.5 "/>
<polygon class="st12" points="401.3,421.9 396.5,418.5 394.9,412.9 412.7,400.1 417.5,403.4 419.2,409 "/>
<path class="st5" d="M294.4,488.3l-22.3,4c-0.9,0.2-1.8,0.1-2.7-0.2L269,492l40.6,188L269,492l-22.1-6.9c-3-0.9-6.2,0.7-7.1,3.7
	c-0.3,1.1-0.3,2.2,0,3.3l52.7,175.7c0.4,1.2,1.1,2.3,2.2,3c4.6,3.2,18.9,12.6,40.6,21.4l-39.3-204
	C295.5,488.1,294.9,488.2,294.4,488.3z"/>
<path class="st5" d="M609.4,484.6l-22.8,5.7c-0.8,0.2-1.6,0.2-2.4,0.1l-21.5-4c-0.7-0.1-1.3-0.1-2,0l-37.5,203.7l37.5-203.7
	c-0.6,0.1-1.2,0.3-1.7,0.6l-25.5,13.6c-1.2,0.6-2.5,0.8-3.8,0.5l-26.7,196.6c15.2-5.1,30-11.4,44.2-19L588.1,490l-40.9,188.7
	c4.6-2.5,9.3-5.1,14-7.9c1.2-0.7,2.1-1.9,2.5-3.2l52.5-175.8c0.8-3-0.9-6.1-3.9-7C611.4,484.4,610.4,484.4,609.4,484.6z"/>
<path class="st10" d="M529.5,501.1l-27.4-6.8c-0.5-0.1-1.1-0.2-1.6-0.2l-20.9,210.1c7.7-1.7,15.5-3.9,23.4-6.5l26.7-196.6
	L529.5,501.1z"/>
<g class="st13">
	
		<rect x="289" y="491.1" transform="matrix(0.9775 -0.211 0.211 0.9775 -117.3932 74.2633)" class="st14" width="0.6" height="192.3"/>
	
		<rect x="341.1" y="500.6" transform="matrix(0.9898 -0.1425 0.1425 0.9898 -82.1556 54.7688)" class="st14" width="0.6" height="201.2"/>
	
		<rect x="315.3" y="487.5" transform="matrix(0.982 -0.1891 0.1891 0.982 -106.1477 70.3516)" class="st14" width="0.6" height="208"/>
	
		<rect x="367.8" y="494.7" transform="matrix(0.9961 -8.802506e-02 8.802506e-02 0.9961 -51.4529 34.7359)" class="st14" width="0.7" height="212"/>
	
		<rect x="396.8" y="502.5" transform="matrix(0.9996 -2.931733e-02 2.931733e-02 0.9996 -17.6043 11.902)" class="st14" width="0.7" height="207.6"/>
	
		<rect x="428.3" y="497.6" transform="matrix(1 -6.457673e-03 6.457673e-03 1 -3.8952 2.7805)" class="st14" width="0.7" height="213.9"/>
	
		<rect x="359.4" y="607.9" transform="matrix(4.100371e-02 -0.9992 0.9992 4.100371e-02 -165.7274 1043.7429)" class="st14" width="203" height="0.7"/>
	
		<rect x="383.9" y="600.4" transform="matrix(9.966710e-02 -0.995 0.995 9.966710e-02 -156.5494 1028.4681)" class="st14" width="212.3" height="0.7"/>
	
		<rect x="412.8" y="596.9" transform="matrix(0.1302 -0.9915 0.9915 0.1302 -146.1714 1027.8)" class="st14" width="199.9" height="0.6"/>
	
		<rect x="438.2" y="589" transform="matrix(0.1814 -0.9834 0.9834 0.1814 -135.8849 1015.4272)" class="st14" width="207.5" height="0.7"/>
	
		<rect x="471.1" y="585.3" transform="matrix(0.2112 -0.9775 0.9775 0.2112 -124.6182 1016.8441)" class="st14" width="193.1" height="0.7"/>
</g>
<linearGradient id="SVGID_2_" gradientUnits="userSpaceOnUse" x1="937.5751" y1="-30.95" x2="937.5751" y2="657.59" gradientTransform="matrix(-1 0 0 -1 1151.67 730.65)">
	<stop  offset="0" style="stop-color:#808080;stop-opacity:0.25"/>
	<stop  offset="0.54" style="stop-color:#808080;stop-opacity:0.12"/>
	<stop  offset="1" style="stop-color:#808080;stop-opacity:0.1"/>
</linearGradient>
<path class="st15" d="M49.6,639.8c6-2,15-4.3,22.1-3.5c6.7-2.5,22.6-8.9,33.4-18.4c-0.3-9.4-0.1-18.8,0.7-28.2
	c5.5-63-6.9-104.5-6.9-104.5s-9.8-31.7-8.7-58c-0.6,1.2-1,1.9-1,1.9c-0.9-22.7-8.6-46.1-14.4-60.7c-0.2-0.1-0.4-0.1-0.6-0.2
	l-6.6-15.3c-0.5-0.9-0.9-1.8-1.2-2.8l-1-2.4l0.3-0.1c-0.1-0.4-0.2-0.8-0.3-1.2l0,0c-4.1-17.5-7.3-58.9-7.3-58.9
	c-11.1-43.6,15.2-70.6,15.2-70.6l44.6-38.4c-0.2,0.5-0.4,1-0.4,1.6l0.4-0.3c0.6-1.8,1.3-4,2-6.4c-1.6-1.1-3.1-2.4-4.5-3.8
	c-5.1-4.8-8.6-11-10-17.9c-1.1-5.3-0.9-10.8-0.6-16.2l0.7-18.5c0-3.6,0.4-7.2,1.1-10.8c3.4-14.7,18.4-25,33.5-25.6
	c4.8-0.2,9.6,0.4,14.4,0.8c3.9,0.3,7.8,0.4,11.7,0.2c0.4,0,0.9-0.1,1.3-0.3c0.3-0.3,0.5-0.8,0.5-1.3c0.2-1.7-0.4-3.5-1.6-4.8
	c-0.6-0.5-1.3-0.9-2-1.2l1.1,0.3c-0.5-0.4-1.1-0.7-1.8-0.9c3.9,0.9,7.8,1.9,11.1,4c1,0.6,1.8,1.4,2.6,2.2c2.1,1.8,3.4,4.3,3.8,7
	c1.7-1.7,3.4-3.6,4-5.9c0.2-0.9,0.2-1.9,0-2.8c0.3,0.3,0.5,0.7,0.8,1c0-0.1,0-0.2-0.1-0.3c2.8,3.5,4.8,7.6,5.8,12
	c0.8-1,1.2-2.2,1-3.4c0.2,0.7,0.4,1.4,0.6,2.1c0.1-0.5,0.1-0.9,0.1-1.4c1.7,5.3,2.5,10.9,2.3,16.4c0,5.6-2.5,14.2-8.4,16.2
	c-0.3,0.1-0.6,0.2-0.9,0.2c11.2,17.3,6.2,40.5-11.2,51.6c-4.3,2.7-9,4.6-14,5.4c-0.1,0.7-0.2,1.4-0.3,2.1h-0.2
	c-0.2,1.5-0.3,3.1-0.4,4.7c1.5,1.5,3.1,2.8,4.9,3.9c5,3,10.5,4.8,16.2,5.5c6.9,0.5,13.6,2.5,19.6,5.8c7.1,4,15,9.8,17.5,16.8
	c4.1,11.8,26.8,30,42,32.3l5.4-0.3l0.4-0.1v0.1l1.3-0.1h0.1l0,0h0.4v0.1l1.4-0.1c0,0,0.1,0.6,0.3,1.8c7.6-2.6,23.9-9.9,45-29.1
	c23.5-21.4,55.3-17.1,67.6-14.5c1.1,0.3,1.8,1.4,1.6,2.5c-0.1,0.6-0.5,1.1-1,1.4c-4.9,2.7-12.6,6.7-16.2,7.1c0,0,7.4,7.7-0.5,11.8
	c-1.9,0.9-4.2,0.7-5.9-0.6c-3.8-2.8-14.3,3.5-29.6,6.8c0,0-43.1,44.6-64.5,51.5c-0.5,1-1.1,1.9-1.7,2.8l-1.3-0.1l-0.1,0.1h-0.2
	l-0.2,1.4c0,0-33.3-1.8-44-13.8c-0.8-0.7-1.5-1.4-2.1-2.2l11.6,145.5h-0.1l0.1,1.4h-8.5c-0.7,17.9,0,35.8,2.3,53.6v94.8
	c0,0,0.4,8.3-16.9,20.5c-18.2,12.6-35.8,26.2-52.6,40.7l-2.1,1.8c3.2,29,9.9,83.1,15.4,85.1l-3.4,0.6c5.9,7.5,22.6,27.9,27.6,28.5
	c6.2,0.7,10.4,10.4,0,12.5c-9.6,1.9-34.5,4.4-61.6-6.1c-4-1.6-6.5-5.7-5.9-10l2-15.3c-0.4,0.2-0.7,0.5-0.9,0.9c-1.4,4.2,0-5.5,0-5.5
	c-5.7-18.3-10.2-37-13.4-55.8l-20.5,17.8c0,0-0.4-0.5-1.1-1.4c-5,11.4-14,34.8-12,52c2.8,23.5-23.5,2.8-20.8-11.1
	c2.2-11.2-7.8-58.6-11.6-76.3C43.4,645,45.7,641,49.6,639.8z"/>
<path class="st16" d="M264.5,255.9c0,0,19.6-3.4,48.6-29.7c23-20.9,54-16.7,66-14.1c1.1,0.2,1.8,1.2,1.7,2.3
	c-0.1,0.7-0.5,1.2-1.1,1.5c-4.8,2.6-12.3,6.5-15.8,7c0,0,7.2,7.5-0.5,11.5c-1.9,0.9-4.1,0.7-5.8-0.6c-3.7-2.7-14,3.4-28.9,6.6
	c0,0-58.1,60.1-71.6,50L264.5,255.9z"/>
<path class="st16" d="M164.4,174.1c0,0-5.4,23,0,39.2l-24.3,3.4l-21.6-10.8v-14.2c0,0,10.1-21.6,7.4-46.6L164.4,174.1z"/>
<path class="st17" d="M95.5,672.1c0,0-17.6,34.5-14.9,57.4s-23,2.7-20.3-10.8c2.2-10.9-7.6-57.3-11.4-74.5c-0.9-3.9,1.3-7.8,5.1-9
	c8.1-2.7,21.7-6,28.6-0.9C92.8,641.7,95.5,672.1,95.5,672.1z"/>
<path class="st17" d="M162.4,709.9c0,0,23,29.7,29.1,30.4s10.1,10.1,0,12.2c-9.4,1.9-33.7,4.3-60.2-5.9c-4-1.5-6.3-5.6-5.8-9.8
	l3.8-28.9L162.4,709.9z"/>
<path class="st10" d="M200.3,394.4l22,2.9c0,0-5.1,36.9,0.3,77.5v92.6c0,0,0.4,8.2-16.5,20c-17.7,12.4-34.8,25.6-51.2,39.7
	l-61.3,53.1c0,0-24.3-29.7-20.9-47.3c0,0,40.5-12.8,45.9-33.8c3.1-12,18.8-22,31.7-28.3c16.6-8.2,25.6-26.8,21.1-44.7
	c-0.8-3-1.9-6-3.5-8.7c-10.8-18.9-26.4-61.5-26.4-61.5l29.7-56.8L200.3,394.4z"/>
<path class="st18" d="M200.3,394.4l22,2.9c0,0-5.1,36.9,0.3,77.5v92.6c0,0,0.4,8.2-16.5,20c-17.7,12.4-34.8,25.6-51.2,39.7
	l-61.3,53.1c0,0-24.3-29.7-20.9-47.3c0,0,40.5-12.8,45.9-33.8c3.1-12,18.8-22,31.7-28.3c16.6-8.2,25.6-26.8,21.1-44.7
	c-0.8-3-1.9-6-3.5-8.7c-10.8-18.9-26.4-61.5-26.4-61.5l29.7-56.8L200.3,394.4z"/>
<path class="st10" d="M167.8,712c0,0-39.9,6.8-41.2,10.8s0-5.4,0-5.4s-23-69.6-17.6-131.1s-6.8-102-6.8-102s-14.2-46-6.1-72.3
	s93.2-14.9,93.2-14.9s-29.7,69.6-29,102.7c0,0-3.4,100-9.5,111.5C150.9,611.3,160.4,709.2,167.8,712z"/>
<path class="st14" d="M163.1,191.6c0,0-4,25-44.6,14.2l27,205.4c0,0,78.4,2.7,77.7-6.8L207,280.2L163.1,191.6z"/>
<path class="st5" d="M162.1,190.3c0,0,7.7,8.2,19.5,9.3c6.7,0.5,13.3,2.5,19.2,5.7c7,3.9,14.6,9.5,17,16.5
	c4.7,13.5,34.5,35.8,48,31.1l-4.7,40.5c0,0-38.5-2-45.3-16.9l11.5,144.6h-10.1c0,0-5.4-39.2-9.5-47.3s-12.2-52.7-12.8-63.5
	s-10.8-73-19.6-83.8l-13.2-32.1L162.1,190.3z"/>
<path class="st5" d="M162.1,192.3c0,0,9,7.6,20.9,8.6c6.7,0.5,13.3,2.5,19.2,5.7c7,3.9,14.6,9.5,17,16.5c4.7,13.5,34.5,35.8,48,31.1
	l-4.7,40.5c0,0-38.5-2-45.3-16.9l11.5,144.6h-10.2c0,0-5.4-39.2-9.5-47.3s-12.2-52.7-12.8-63.5s-10.8-73-19.6-83.8l-14.5-31.4
	L162.1,192.3z"/>
<path class="st19" d="M162.1,191c0,0,9,7.6,20.9,8.6c6.7,0.5,13.3,2.5,19.2,5.7c7,3.9,14.6,9.5,17,16.5c4.7,13.5,34.5,35.8,48,31.1
	l-4.7,40.5c0,0-38.5-2-45.3-16.9l11.5,144.6h-10.2c0,0-5.4-39.2-9.5-47.3s-12.2-52.7-12.8-63.5s-10.8-73-19.6-83.8L162.1,195
	L162.1,191z"/>
<path class="st5" d="M127.7,165c0.9-6.4-0.9-10.4-1.7-17.9l38.5,29.1c0,0-0.9,3.9-1.6,9.7c-1.9,0.3-3.9,0.5-5.8,0.5
	C143.6,186.3,134,175.8,127.7,165z"/>
<circle class="st16" cx="157" cy="147.7" r="36.5"/>
<path class="st5" d="M196.8,112c0.2-6.2-0.8-12.3-3-18.1c1.2,1.9,0.9,4.3-0.8,5.8c-1.2-6.3-4.4-12-9.2-16.2c2.6,0.4,3.9,3.6,3.3,6.2
	s-2.6,4.5-4.5,6.4c0.2-3.9-2.3-7.5-5.6-9.6s-7.1-3-10.9-3.9c2.7,1,4.4,3.6,4.2,6.5c0,0.5-0.2,0.9-0.5,1.2c-0.4,0.2-0.8,0.4-1.2,0.3
	c-3.8,0.2-7.6,0.1-11.4-0.2c-4.7-0.5-9.4-0.8-14.1-0.8c-14.8,0.6-29.5,10.6-32.8,25c-0.7,3.5-1,7-1.1,10.5l-0.7,18.1
	c-0.2,5.3-0.4,10.6,0.6,15.8c2.1,9.8,8.4,18.1,17.2,22.7c5.3-7.7,5.8-17.6,7.6-26.7c0.3-2.1,1.1-4.1,2.3-5.9
	c1.3-1.7,3.7-2.7,5.6-1.9s2.8,3.8,1.2,5.2c1.4,1.7,4.2,0.4,5.9-1.1c4.6-4.4,7.8-10.1,9.2-16.4c0.7-3.1,1.3-7,4.4-8.1
	c1.1-0.3,2.2-0.4,3.3-0.2c6.4,0.4,16.5,3.1,22.7,1.1C194.4,125.8,196.8,117.4,196.8,112z"/>
<path class="st20" d="M196.2,111.3c0.2-6.2-0.8-12.3-3-18.1c1.2,1.9,0.9,4.3-0.8,5.8c-1.2-6.3-4.4-12-9.2-16.2
	c2.6,0.4,3.9,3.6,3.3,6.2s-2.6,4.5-4.5,6.4c0.2-3.9-2.3-7.5-5.6-9.6s-7.1-3-10.9-3.9c2.7,1,4.4,3.6,4.2,6.5c0,0.5-0.2,0.9-0.5,1.2
	c-0.4,0.2-0.8,0.4-1.2,0.3c-3.8,0.2-7.6,0.1-11.4-0.2c-4.7-0.5-9.4-0.8-14.1-0.8c-14.8,0.6-29.5,10.6-32.8,25c-0.7,3.5-1,7-1.1,10.6
	l-0.7,18.1c-0.2,5.3-0.4,10.6,0.6,15.8c2.1,9.8,8.4,18.1,17.2,22.7c5.3-7.7,5.8-17.5,7.6-26.7c0.3-2.1,1.1-4.1,2.3-5.9
	c1.3-1.7,3.7-2.7,5.6-1.9s2.8,3.8,1.2,5.2c1.4,1.7,4.2,0.4,5.9-1.1c4.6-4.4,7.8-10.1,9.2-16.4c0.7-3.1,1.3-7,4.4-8.1
	c1.1-0.3,2.2-0.4,3.3-0.2c6.4,0.4,16.5,3.1,22.7,1.1C193.8,125.2,196.2,116.7,196.2,111.3z"/>
<path class="st5" d="M268.8,252.8c0,0,5.4,25-4.7,40.5l-5.7-0.5l3.1-39.6L268.8,252.8z"/>
<path class="st19" d="M267.5,252.8c0,0,5.4,25-4.7,40.5l-5.7-0.5l3.1-39.6L267.5,252.8z"/>
<path class="st5" d="M122.2,184.6l-43.5,37.5c0,0-25.7,26.4-14.9,68.9c0,0,4.7,62.2,10.1,64.9c0,0,18.9,37.8,20.3,73.6
	c0,0,25.3-51,36.8-19.9s38.2,35.5,38.2,35.5l-14.9-183.8C154.3,261.3,116.8,196,122.2,184.6z"/>
<path class="st19" d="M120.9,184.6l-43.6,37.5c0,0-25.7,26.4-14.9,68.9c0,0,4.7,62.2,10.1,64.9c0,0,18.9,37.8,20.3,73.6
	c0,0,26.7-53.7,38.2-22.6s36.8,38.2,36.8,38.2L153,261.3C153,261.3,115.5,196,120.9,184.6z"/>
<path class="st16" d="M100.9,343c0,0-10.8-7.4-28.4,12.8l43.2,78.4l14.5-22C130.3,412.2,99.6,351.8,100.9,343z"/>
<path class="st5" d="M111.4,347.4c0,0-23.9,26.9-33.2,22.5l-8.6-20.1l32.4-13.9L111.4,347.4z"/>
<path class="st19" d="M111.4,346.1c0,0-23.9,26.9-33.2,22.6l-8.6-20.1l32.4-13.9L111.4,346.1z"/>
<path class="st5" d="M128.9,407.2c0,0-11.4,23.3-17.5,24.7l8.8,10.1l12.8-24.4L128.9,407.2z"/>
<path class="st10" d="M129.6,407.9c0,0-11.4,23.3-17.5,24.7l8.8,10.1l12.8-24.3L129.6,407.9z"/>
<path class="st5" d="M108,263.6c0,0-1.4,48.6,4,66.9"/>
<path class="st5" d="M217.5,273.1c0,0-8.1-2.7-8.1-9.5"/>
<g class="st13">
	
		<linearGradient id="SVGID_3_" gradientUnits="userSpaceOnUse" x1="1104.2081" y1="407.2838" x2="1318.3533" y2="407.2838" gradientTransform="matrix(-1 0 0 -1 1987.67 730.65)">
		<stop  offset="0" style="stop-color:#808080;stop-opacity:0.25"/>
		<stop  offset="0.54" style="stop-color:#808080;stop-opacity:0.12"/>
		<stop  offset="1" style="stop-color:#808080;stop-opacity:0.1"/>
	</linearGradient>
	<path class="st21" d="M669.3,274.3c-0.1,6.4,0.7,12.3,2.8,16.9l2,29c0,0,0.5-0.3,1.4-0.7c-1.2,11-0.3,31.1,21.3,34.9
		c0.5-0.1,0.9-0.4,1.3-0.7c1.5-3,2.8-6.1,4-9.2l0.2,0.1l-0.2,1.2l1.6,0.5c-7.8,16.9-6,52-4.3,55.4c0.7,1.4,1.3,5.7,1.7,10.5
		c0.8,9.3,0.4,18.7-1,28c-1,6.4-1.3,14.2,2,17.5c6,5.9,5.3,51.3,5.3,51.3c0.4,1,0.9,2,1.4,3l-2.1,0.3c0,0,0,17.8,3.3,30.3
		c1.9,7.2-0.8,16.6-3.5,23.2c-3.7,9-4.5,18.8-2.3,28.3c2,8.1,6,16.3,14.4,18.9c18.7,5.9,22.7-25,22.7-25s-0.7-23.7,0-27
		c0.2-1,1.2-3.8,2.4-7.3c4.5-12.5,6.2-25.8,5-39l-0.8-8.3l-3.6,0.5c-0.1-0.9-0.1-1.8-0.2-2.7s-0.1-1.6-0.1-2.5s-0.1-1.7-0.1-2.6
		s-0.1-1.8-0.1-2.7c0-0.5,0-0.9,0-1.4c-0.2-4.3-0.3-8.8-0.4-13.3c0-2-0.1-4-0.1-6c0-1.5,0-2.9-0.1-4.3c0-0.5,0-0.9,0-1.4
		c0-2.3-0.1-4.5-0.1-6.5c0-0.4,0-0.8,0-1.2c0-0.8,0-1.5,0-2.3c0-0.4,0-0.7,0-1.1c0-0.7,0-1.3,0-2s0-1.2,0-1.7s0-1,0-1.5
		c0-2.5,0.1-3.6,0.2-2.7c0.3,3,1.3,21.1,0-2c-1.1-18.6,15.7-62.9,22.2-79.3c2.1,1.1,4.1,2.3,6,3.6c2.2,25.9-0.8,75.4-1.8,90v0.1
		c-0.1,1.1-0.1,2-0.2,2.7v0.1l0,0.7v0.2v0.2v0.1c0,0-8.7,54-8.7,66.5c0,9.6-4.8,23.6-6.9,29.4c-3.2,1.4-5.7,2.8-5.7,2.8l0.7,49.4
		c0,0-7.3,24.3,19.3,30.3s15.3-24.3,15.3-24.3l-2-21.7l9.3-33.6l-2.6-0.5c5.5-17.7,20.4-66.4,19.3-77.1c-1.2-12,4.8-25.1,5.8-27.3
		l0,0l0.2-0.3c-5.7-11.8,11.7-74,19.6-100.8c9.9-4.7,17.1-8.4,17.1-8.4s-0.2-0.4-0.5-1l0.5-0.3c-4.3-8-7.7-16.4-10.2-25.1l0.6-0.6
		l-0.4-1.2c1.4-1.3,2.1-2.1,2.1-2.1s19.3,3.3,14.7-5.9s-3.3-23-3.3-23v-50.6l9.3,3.1c17.6,2.9,20.7-16.7,20.6-31.7
		c0-5.9-0.4-11.8-1.3-17.6c0,0-13.3-102-36.7-98.7c-21.9,3.1-41.1-9.7-43.4-11.4c-0.3-0.9-0.5-1.7-0.8-2.6c1.3-1.5,2.5-3.1,3.5-4.8
		c0.7,0,1.5-0.1,2.2-0.2c0-0.2,0-0.4,0-0.6l0.7-0.1c-0.1-4.6,1.6-9.1,4.8-12.4c1.3-1.2,2.8-2.2,4.4-3c3.2-1.5,6.9-2,10-3.6
		c1.1-0.6,2.1-1.4,3-2.3c2-1.8,3.3-4.3,2.6-6.8c-0.3-1.1-1-2.1-1-3.3c0-1.6,1.2-2.9,2-4.3c2.2-4.1,0.2-9.3-2.5-13.1s-6.3-7.4-7.3-12
		c-0.4-1.9-0.4-3.9-1-5.7c-2-5.9-9.7-7.7-16-7.4S793.5,5.3,788,2.2c-1-0.8-2.2-1.4-3.3-1.9c-1.4-0.3-2.8-0.3-4.2,0
		c-8,1.4-15.4,5.4-22,10c-2.7,1.8-5.2,3.8-7.5,6.1c-1.5,1.4-2.9,3-4,4.8c-2.7,4.2-4,9.5-2.3,14.2c1,2.6,2.6,4.8,4.8,6.5
		c-10.9,14.3-8.2,34.8,6.1,45.7c0.2,0.2,0.4,0.3,0.6,0.5c-1.1,1.8-2.4,3.5-3.8,5.1v-0.3c0,0-20.3,10.2-27.7,8.9
		c-7.2-1.3-25.8,10.6-25.4,34.5c0,0.6,0,1.2,0,1.8l-12,37.2c-4.8,14.9-7.3,30.6-7.3,46.3C680.1,221.5,669.1,251.4,669.3,274.3z
		 M701.5,290l15.9-59.2v12.9l-10,35.5c0,0-2,11.9-3.5,24.5L701.5,290z"/>
</g>
<path class="st22" d="M748.8,498l0.7,8.1c1.2,12.9-0.5,25.9-4.8,38.2c-1.2,3.3-2.1,6.1-2.3,7.1c-0.6,3.2,0,26.4,0,26.4
	s-3.9,30.2-21.9,24.4c-8.1-2.6-12-10.5-13.9-18.5c-2.1-9.2-1.3-18.9,2.2-27.6c2.6-6.5,5.2-15.7,3.3-22.7
	c-3.2-12.2-3.2-29.6-3.2-29.6L748.8,498z"/>
<path class="st23" d="M768.1,358.4c0,0-25.1,61.1-23.8,83.6c1.3,22.5,0.3,4.8,0,1.9c-0.6-5.1,0,56,1.9,63c0,0-26.4,19.3-36.7-6.4
	c0,0,0.6-44.4-5.1-50.2c-3.2-3.2-2.9-10.8-1.9-17.1c1.4-9,1.7-18.2,1-27.3c-0.4-4.7-0.9-8.8-1.6-10.2c-1.9-3.9-3.9-47.6,7.7-59.8
	L768.1,358.4z"/>
<path class="st5" d="M743,507c-1.9-7.1-2.5-68.2-1.9-63c0.3,2.9,1.3,20.6,0-1.9s23.8-83.6,23.8-83.6l-56.1-21.6
	c0.3-0.3,0.5-0.6,0.8-0.9l58.5,22.5c0,0-25.1,61.1-23.8,83.6c1.3,22.5,0.3,4.8,0,1.9c-0.6-5.1,0,56,1.9,63c0,0-10.5,7.7-20.9,6.9
	C734.6,513.2,743,507,743,507z"/>
<path class="st22" d="M790,556.5l-9,32.8l1.9,21.2c0,0,10.9,29.6-14.8,23.8s-18.7-29.6-18.7-29.6l-0.6-48.2c0,0,10.3-5.8,14.8-5.1
	S790,556.5,790,556.5z"/>
<path class="st23" d="M834.4,343c0,0-29.6,95.8-22.5,110.6c0,0-7.1,14.2-5.8,27s-20.6,81.7-20.6,81.7l-32.2-5.8
	c0,0,7.7-19.3,7.7-31.5s8.4-65,8.4-65s7.1-96.5-1.3-106.8L834.4,343z"/>
<g class="st24">
	<path d="M770.6,361.1c5.3,21.8-0.6,102.2-0.6,102.2s-8.4,52.7-8.4,65c0,9.3-4.5,22.8-6.6,28.6l-1.7-0.3c0,0,7.7-19.3,7.7-31.5
		s8.4-65,8.4-65S774.8,386.6,770.6,361.1z"/>
	<path d="M811.9,453.6l-0.2,0.3c0-0.3-0.1-0.7-0.1-1C811.7,453.2,811.8,453.4,811.9,453.6z"/>
	<path d="M769.6,356.4c-0.3-1.1-0.8-2.2-1.5-3.1l66.2-10.3c0,0-0.4,1.2-1.1,3.5L769.6,356.4z"/>
</g>
<path class="st25" d="M680,308.3c0,0-9.7,36,19.3,41.2c0.5-0.1,0.9-0.3,1.3-0.6c0,0,16.7-32.8,3.9-45.7L680,308.3z"/>
<path class="st25" d="M798.4,69.1c0,0-1.9,27,19.3,39.9s-45,48.2-45,48.2l-34.8-55.3c0,0,14.8,1.9,23.8-23.8L798.4,69.1z"/>
<path class="st5" d="M812.5,110.8c0,0-32.8,68.2-62.4,3.9l-45.7,226.4c0,0,70.7,21.9,71.4,32.2s71.4-26.4,71.4-26.4
	s-15.4-28.3-11.6-45.7S812.5,110.8,812.5,110.8z"/>
<path class="st26" d="M812.5,109.6c0,0-32.8,68.2-62.4,3.9l-45.7,226.4c0,0,70.7,21.9,71.4,32.1s71.4-26.4,71.4-26.4
	s-15.4-28.3-11.6-45.7S812.5,109.6,812.5,109.6z"/>
<path class="st22" d="M780.3,574.5c0,0,8.4-18.7-10.9-18.7s-16.1,16.8-16.1,16.8L780.3,574.5z"/>
<path class="st22" d="M736.6,526.3c0,0,7.7-19.9-11.6-20.6s-9.7,18-9.7,18L736.6,526.3z"/>
<path class="st5" d="M753,95.1c0,0-19.6,10-26.7,8.7s-25.7,10.9-24.4,35.4l-11.6,36.5c-4.6,14.6-7,29.9-7,45.2l0,0
	c0,0-16.7,46.3-7.7,66.9l1.9,28.3c0,0,14.8-8.4,30.2-5.8l-3.9-23.1l17.4-65.6l28.9-70.1L753,95.1z"/>
<path class="st27" d="M753,93.8c0,0-19.6,10-26.7,8.7s-25.7,10.9-24.4,35.4l-11.6,36.5c-4.6,14.6-7,29.9-7,45.2l0,0
	c0,0-16.7,46.3-7.7,66.9l1.9,28.3c0,0,14.8-8.4,30.2-5.8l-3.9-23.1l17.4-65.6l28.9-70.1L753,93.8z"/>
<path class="st5" d="M720.5,172v72.7l-9.7,34.7c0,0-6.4,37.9-4.5,49.5s32.8,14.1,41.2,4.5s3.9-92,3.9-92l1.6-120.6l-1.3-3.9
	L720.5,172z"/>
<path class="st27" d="M719.2,168.7v72.7l-9.7,34.7c0,0-6.4,37.9-4.5,49.5s32.8,14.1,41.2,4.5s3.9-92,3.9-92l1.6-120.5L719.2,168.7z"
	/>
<path class="st5" d="M848.8,229.2l-20.6,64l9.7,27.3c0,0-45.7,48.2-74.6,25.1c0,0-3.2-98.4,3.2-121.6s37.3-101,37.3-101l6.4-20.6
	l34.1,19.3L848.8,229.2z"/>
<path class="st27" d="M850.5,226v63c0,0-1.3,13.5,3.2,22.5s-14.2,5.8-14.2,5.8s-45.7,48.2-74.6,25.1c0,0-3.2-98.4,3.2-121.5
	s37.3-101,37.3-101l6.4-20.6l34.1,19.3L850.5,226z"/>
<rect x="771.7" y="204.7" transform="matrix(0.5446 -0.8387 0.8387 0.5446 187.0126 760.898)" class="st28" width="45" height="7"/>
<ellipse transform="matrix(0.5408 -0.8412 0.8412 0.5408 164.0925 757.0818)" class="st5" cx="775.4" cy="228.3" rx="14.5" ry="8"/>
<ellipse transform="matrix(0.5446 -0.8387 0.8387 0.5446 160.479 758.6851)" class="st28" cx="778.9" cy="231.6" rx="14.6" ry="8"/>
<ellipse transform="matrix(0.5446 -0.8387 0.8387 0.5446 160.479 758.6851)" class="st5" cx="778.9" cy="231.6" rx="11.8" ry="6.5"/>
<path class="st5" d="M800.6,88c0,0,19.6,14.5,42.1,11.2s35.4,96.5,35.4,96.5s8.4,51.5-18.7,47l-59.8-19.9c0,0,12.9-13.5,10.9-30.9
	l28.9,11.6l-1.3-55.3L800.6,88z"/>
<path class="st5" d="M876.8,194.5c0,0,8.4,51.5-18.7,47l-59.8-19.9c0,0,12.9-13.5,10.9-30.9l28.9,11.6L876.8,194.5z"/>
<path class="st25" d="M810.7,197.4c0,0-20-26.4-34.8-13.7s29.5,35.9,29.5,35.9L810.7,197.4z"/>
<path class="st27" d="M800.6,86.7c0,0,19.6,14.5,42.1,11.2s35.4,96.5,35.4,96.5s8.4,51.5-18.7,47l-59.8-19.9
	c0,0,12.9-13.5,10.9-30.9l28.9,11.6l-1.3-55.3l-32.8-27L800.6,86.7z"/>
<path class="st5" d="M761,79.3l36.7-9c0,0-1.9,2.2,0.3,10.6c-5.9,6.8-13.2,15.8-22.8,15.8c-6.9,0-13.7-2.2-19.2-6.4
	C758.1,86.9,759.7,83.2,761,79.3z"/>
<circle class="st25" cx="775.8" cy="63.3" r="32.2"/>
<path class="st5" d="M763.7,49.3c-7.5-1.3-15.7-4.6-18.2-11.7c-1.6-4.6-0.4-9.8,2.2-13.8s6.5-7.2,10.4-10c6.4-4.5,13.5-8.4,21.3-9.8
	c1.3-0.3,2.7-0.3,4.1,0c1.2,0.5,2.3,1.1,3.3,1.8c5.3,3,11.9,1.7,18,1.4s13.5,1.4,15.4,7.2c0.6,1.8,0.6,3.7,1,5.6c1,4.5,4.4,8,7,11.8
	s4.6,8.8,2.4,12.9c-0.8,1.4-2,2.6-2,4.2c0.2,1.1,0.5,2.2,1,3.2c0.9,3.3-1.7,6.7-4.8,8.2s-6.6,2.1-9.7,3.5c-6,2.9-9.7,9.1-9.5,15.7
	c-2.8,0.3-6.2,0.5-8.1-1.6c-0.9-0.9-1.3-2.2-2.1-3.2c-1-1.3-2.6-2.1-3.8-3.2c-6.7-5.5-2-13.2-5.8-19.1c-2-3.1-5.2-2.1-8.4-2.1
	C772.9,50.4,768.2,50.1,763.7,49.3z"/>
<path class="st29" d="M764.3,48.7c-7.5-1.3-15.7-4.6-18.2-11.7c-1.6-4.6-0.4-9.8,2.2-13.8s6.5-7.2,10.4-10
	c6.4-4.5,13.5-8.4,21.3-9.8c1.3-0.3,2.7-0.3,4.1,0c1.2,0.5,2.3,1.1,3.3,1.8c5.3,3,11.9,1.7,18,1.4s13.5,1.4,15.4,7.2
	c0.6,1.8,0.6,3.7,1,5.6c1,4.5,4.4,8,7,11.8s4.6,8.8,2.4,12.9c-0.8,1.4-2,2.6-2,4.2c0.2,1.1,0.5,2.2,1,3.2c0.9,3.3-1.7,6.7-4.8,8.2
	s-6.6,2.1-9.7,3.5c-6,2.9-9.7,9.1-9.5,15.7c-2.8,0.3-6.2,0.5-8.1-1.6c-0.9-0.9-1.3-2.2-2.1-3.2c-1-1.3-2.6-2.1-3.8-3.2
	c-6.7-5.5-2-13.2-5.8-19.1c-2-3.1-5.2-2.1-8.4-2.1C773.5,49.7,768.9,49.4,764.3,48.7z"/>
<path class="st5" d="M725.4,156.8c0,0-7.1,36.7-3.9,50.8c2,8.2,1.7,16.8-0.8,24.9"/>
<path class="st5" d="M839.7,172.3c0,0,3.1,24.4-2,29.6"/>
<path d="M660.1,473.5c0.8,0,1.5-0.7,1.5-1.5s-0.7-1.5-1.5-1.5s-1.5,0.7-1.5,1.5S659.3,473.5,660.1,473.5z"/>
<rect x="367.9" y="197.3" transform="matrix(0.3778 -0.9259 0.9259 0.3778 27.5678 480.6678)" class="st28" width="7" height="45"/>
<ellipse transform="matrix(0.3778 -0.9259 0.9259 0.3778 33.7113 510.2768)" class="st5" cx="396.5" cy="230.1" rx="8" ry="14.6"/>
<ellipse transform="matrix(0.3778 -0.9259 0.9259 0.3778 33.9147 511.1999)" class="st28" cx="397.3" cy="230.4" rx="8" ry="14.6"/>
<ellipse transform="matrix(0.3778 -0.9259 0.9259 0.3778 33.9147 511.1999)" class="st5" cx="397.3" cy="230.4" rx="6.5" ry="11.8"/>
</svg>
